<svg xmlns="http://www.w3.org/2000/svg" viewBox="0 0 1355.53 732.56"><defs><style>.cls-1{fill:#00dfcb;}.cls-2{fill:#6f42d2;}.cls-3,.cls-4{opacity:0.15;}</style></defs><title>purple-rocket-logo</title><g id="Layer_2" data-name="Layer 2"><g id="Layer_1-2" data-name="Layer 1"><polygon class="cls-1" points="591.25 357.25 555.77 382.3 555.77 249.05 591.25 210.48 591.25 357.25"/><path class="cls-2" d="M638.26,36.13V321.77l-35.48,26.16V118.87C607.62,94.28,617.68,63.15,638.26,36.13Z"/><path class="cls-1" d="M696.11,13.73v307h-37V13.73c3.1-2.68,6.33-5.29,9.74-7.79q4.18-3.09,8.76-5.94c3,1.9,5.91,3.88,8.7,5.91Q691.46,9.66,696.11,13.73Z"/><path class="cls-2" d="M752.75,118.87V347.93l-35.46-26.16V36.16C737.87,63.17,747.9,94.28,752.75,118.87Z"/><polygon class="cls-1" points="764.29 357.25 799.76 382.3 799.76 249.05 764.29 210.48 764.29 357.25"/><path class="cls-2" d="M847,147.77a239.84,239.84,0,0,0-65.33-46.43v19a222.49,222.49,0,1,1-207-.43V101A239.38,239.38,0,1,0,847,147.77Z"/><path class="cls-2" d="M789.92,431.86a51.32,51.32,0,0,0-54-14.49,154.44,154.44,0,0,1-40.4-83.63H658.28a154.5,154.5,0,0,1-40.39,83.63,51.34,51.34,0,0,0-54.06,14.49,51.21,51.21,0,0,0-41.76-21.52,51.76,51.76,0,0,0-15.21,2.29,195.69,195.69,0,0,0,38,48.4q2.85,2.67,5.79,5.16a191.58,191.58,0,0,0,19.17,14.54,195,195,0,0,0,233.28-13c2.47-2,4.87-4.17,7.21-6.33a196,196,0,0,0,38.09-48.27,51.3,51.3,0,0,0-58.46,18.73Z"/><g class="cls-3"><path d="M686.35,5.91c-2.79-2-5.68-4-8.7-5.91l-1.44.94V320.68h19.9V13.73Q691.46,9.66,686.35,5.91Z"/><path d="M752.75,118.87V347.93l-35.46-26.16V36.16C737.87,63.17,747.9,94.28,752.75,118.87Z"/><polygon points="764.29 357.25 799.76 382.3 799.76 249.05 764.29 210.48 764.29 357.25"/><path d="M847,147.77a239.84,239.84,0,0,0-65.33-46.43v19a222.44,222.44,0,0,1-103.9,419.13c-.53,0-1,0-1.56,0v16.89c.52,0,1,0,1.56,0A239.33,239.33,0,0,0,847,147.77Z"/><path d="M831.68,410.34a51.21,51.21,0,0,0-41.76,21.52,51.32,51.32,0,0,0-54-14.49,154.44,154.44,0,0,1-40.4-83.63H676.21V513.27c.52,0,1,.05,1.57.05a195,195,0,0,0,125.3-45.59c2.47-2,4.87-4.17,7.21-6.33a196,196,0,0,0,38.09-48.27A51.24,51.24,0,0,0,831.68,410.34Z"/></g><path class="cls-2" d="M63.25,670.47c0,16.1-11.34,29.11-29.5,29.11H12.24v32.08H0V641.49H33.75C52.17,641.49,63.25,654.5,63.25,670.47Zm-12.76,0c0-8.76-5.79-16.75-16.74-16.75H12.24v33.62H33.75C44.57,687.34,50.49,679.36,50.49,670.47Z"/><path class="cls-2" d="M176,641.49v53.84c0,24.35-14.55,37.23-34.13,37.23s-34.14-12.88-34.14-37.23V641.49h12.37v53.45c0,18.3,9.14,25.38,21.77,25.38s21.89-7.08,21.89-25.38V641.49Z"/><path class="cls-2" d="M257.89,699.58H236.63v32.08H224.27V641.49h33.88c18.29,0,29.37,13,29.37,29,0,12-6.19,22.28-16.88,26.66l19.45,34.53h-14Zm-21.26-12.24h21.52c10.82,0,16.74-8,16.74-16.87s-5.92-16.75-16.74-16.75H236.63Z"/><path class="cls-2" d="M397.78,670.47c0,16.1-11.33,29.11-29.5,29.11H346.77v32.08H334.54V641.49h33.74C386.71,641.49,397.78,654.5,397.78,670.47Zm-12.75,0c0-8.76-5.8-16.75-16.75-16.75H346.77v33.62h21.51C379.1,687.34,385,679.36,385,670.47Z"/><path class="cls-2" d="M497.1,719.29v12.37H442.87V641.49h12.37v77.8Z"/><path class="cls-2" d="M601.31,719.29v12.37H541.54V641.49h59.13v12.23H553.78v26.8h42.89v12H553.78v26.79Z"/><path class="cls-1" d="M749.58,699.58H728.33v32.08H716V641.49h33.88c18.29,0,29.37,13,29.37,29,0,12-6.19,22.28-16.88,26.66l19.45,34.53h-14Zm-21.25-12.24h21.51c10.82,0,16.74-8,16.74-16.87s-5.92-16.75-16.74-16.75H728.33Z"/><path class="cls-1" d="M909.18,686.57c0,25.51-18.42,46-43.79,46s-43.67-20.61-43.67-46,18.29-45.86,43.67-45.86S909.18,661.2,909.18,686.57Zm-12.62,0c0-18.55-12.49-33.62-31.17-33.62s-31,14.94-31,33.62,12.5,33.75,31,33.75S896.56,705.25,896.56,686.57Z"/><path class="cls-1" d="M1021.38,705.89l11.21,5.54a42.29,42.29,0,0,1-37.1,21.13c-25.5,0-43.8-20.48-43.8-46s18.3-45.86,43.8-45.86a42.45,42.45,0,0,1,37.1,21l-11.21,5.67A29.45,29.45,0,0,0,995.49,653c-18.68,0-31.17,15.07-31.17,33.62s12.49,33.62,31.17,33.62A29.61,29.61,0,0,0,1021.38,705.89Z"/><path class="cls-1" d="M1101.38,690.05,1090,703.19v28.47h-12.36V641.49H1090v42.76l37.23-42.76h16.1l-33.75,39,36.46,51.14h-15.2Z"/><path class="cls-1" d="M1248.36,719.29v12.37h-59.77V641.49h59.12v12.23h-46.89v26.8h42.9v12h-42.9v26.79Z"/><path class="cls-1" d="M1355.53,653.72H1329v77.94h-12.24V653.72h-26.54V641.49h65.31Z"/><path class="cls-4" d="M749.58,699.58H728.33v32.08H716V641.49h33.88c18.29,0,29.37,13,29.37,29,0,12-6.19,22.28-16.88,26.66l19.45,34.53h-14Zm-21.25-12.24h21.51c10.82,0,16.74-8,16.74-16.87s-5.92-16.75-16.74-16.75H728.33Z"/><path class="cls-4" d="M909.18,686.57c0,25.51-18.42,46-43.79,46s-43.67-20.61-43.67-46,18.29-45.86,43.67-45.86S909.18,661.2,909.18,686.57Zm-12.62,0c0-18.55-12.49-33.62-31.17-33.62s-31,14.94-31,33.62,12.5,33.75,31,33.75S896.56,705.25,896.56,686.57Z"/><path class="cls-4" d="M1021.38,705.89l11.21,5.54a42.29,42.29,0,0,1-37.1,21.13c-25.5,0-43.8-20.48-43.8-46s18.3-45.86,43.8-45.86a42.45,42.45,0,0,1,37.1,21l-11.21,5.67A29.45,29.45,0,0,0,995.49,653c-18.68,0-31.17,15.07-31.17,33.62s12.49,33.62,31.17,33.62A29.61,29.61,0,0,0,1021.38,705.89Z"/><path class="cls-4" d="M1101.38,690.05,1090,703.19v28.47h-12.36V641.49H1090v42.76l37.23-42.76h16.1l-33.75,39,36.46,51.14h-15.2Z"/><path class="cls-4" d="M1248.36,719.29v12.37h-59.77V641.49h59.12v12.23h-46.89v26.8h42.9v12h-42.9v26.79Z"/><path class="cls-4" d="M1355.53,653.72H1329v77.94h-12.24V653.72h-26.54V641.49h65.31Z"/></g></g></svg>